<?xml version="1.0" encoding="UTF-8" standalone="no"?><!DOCTYPE svg PUBLIC "-//W3C//DTD SVG 1.1//EN" "http://www.w3.org/Graphics/SVG/1.1/DTD/svg11.dtd"><svg width="100%" height="100%" viewBox="0 0 12525 8334" version="1.1" xmlns="http://www.w3.org/2000/svg" xmlns:xlink="http://www.w3.org/1999/xlink" xml:space="preserve" xmlns:serif="http://www.serif.com/" style="fill-rule:evenodd;clip-rule:evenodd;stroke-linejoin:round;stroke-miterlimit:2;"><g><rect x="0" y="0" width="12524.2" height="8333.33" style="fill:#fafafa;fill-rule:nonzero;"/><path d="M690.092,2669.7c0,0 706.045,-303.429 978.741,107.813c272.692,411.237 -109.329,385.629 -109.329,385.629c0,0 -21.221,190.129 -381.85,-259.842c-169.983,-212.087 -487.562,-233.6 -487.562,-233.6Z" style="fill:#bbd070;fill-rule:nonzero;"/><path d="M566.946,1497.42c0,0 626.754,-194.383 1039.4,600.596c412.65,794.979 783.633,857.821 783.633,857.821c0,0 -1417.57,254.358 -1823.03,-1458.42Z" style="fill:#97a43c;fill-rule:nonzero;"/><path d="M2129.35,3001.73c-54.883,264.304 -659.862,-245.354 -719.442,-702.4c-59.575,-457.041 59.059,-792.387 -61.204,-1085.57c0,0 1050.91,486.455 780.646,1787.97Z" style="fill:#48753a;fill-rule:nonzero;"/><path d="M2293.03,1677.78c-24.937,0 -48.796,3.671 -70.771,10.396c-28.979,-70.304 -100.975,-120.092 -185.225,-120.092c-93.637,0 -172.162,61.525 -193.25,144.367c-16.179,-6.113 -33.8,-9.492 -52.279,-9.492c-77.946,0 -141.146,60.063 -141.146,134.162l841.513,0c0,-87.995 -89.021,-159.341 -198.842,-159.341Z" style="fill:#ebebeb;fill-rule:nonzero;"/><path d="M1046.13,2207.8c-19.012,0 -37.204,2.804 -53.962,7.929c-22.1,-53.609 -76.992,-91.571 -141.233,-91.571c-71.4,0 -131.276,46.917 -147.359,110.079c-12.333,-4.658 -25.771,-7.237 -39.858,-7.237c-59.438,0 -107.625,45.8 -107.625,102.3l641.654,0c0,-67.096 -67.879,-121.5 -151.617,-121.5Z" style="fill:#ebebeb;fill-rule:nonzero;"/><path d="M9107.21,7146.33l-7608.36,0c-192.817,0 -349.121,-156.333 -349.121,-349.125l0,-4231.95c0,-192.812 156.304,-349.12 349.121,-349.12l7608.36,0c192.792,0 349.125,156.308 349.125,349.12l0,4231.95c0,192.792 -156.333,349.125 -349.125,349.125Z" style="fill:#005ca6;fill-rule:nonzero;"/><path d="M2484.66,1228.23c-175.645,0 -318.037,-142.387 -318.037,-318.037c0,-175.646 142.392,-318.038 318.037,-318.038c175.65,0 318.038,142.392 318.038,318.038c0,175.65 -142.388,318.037 -318.038,318.037Zm413.905,-425.271c-10.063,-38.958 -25.5,-75.741 -45.438,-109.558l46.263,-69.575l-64.184,-64.179l-64.179,-64.179l-69.571,46.262c-33.821,-19.941 -70.608,-35.383 -109.558,-45.446l-16.471,-81.833l-181.529,0l-16.471,81.833c-38.954,10.063 -75.741,25.505 -109.558,45.446l-69.571,-46.262l-64.183,64.179l-64.179,64.179l46.266,69.575c-19.942,33.817 -35.383,70.6 -45.446,109.558l-81.837,16.471l0,181.525l81.837,16.471c10.063,38.954 25.504,75.742 45.446,109.558l-46.266,69.571l64.179,64.18l64.183,64.179l69.571,-46.259c33.817,19.942 70.604,35.38 109.558,45.442l16.471,81.842l181.529,0l16.471,-81.842c38.95,-10.062 75.737,-25.5 109.558,-45.442l69.571,46.259l64.179,-64.179l64.184,-64.18l-46.263,-69.571c19.938,-33.816 35.375,-70.604 45.438,-109.558l81.841,-16.471l0,-181.525l-81.841,-16.471Z" style="fill:url(#_Linear1);"/><path d="M2894.33,1726.45c-80.525,0 -145.804,-65.275 -145.804,-145.804c0,-80.525 65.279,-145.804 145.804,-145.804c80.521,0 145.8,65.279 145.8,145.804c0,80.529 -65.279,145.804 -145.8,145.804Zm189.75,-194.962c-4.613,-17.859 -11.692,-34.725 -20.829,-50.23l21.208,-31.895l-29.425,-29.421l-29.421,-29.421l-31.9,21.204c-15.5,-9.142 -32.362,-16.217 -50.225,-20.833l-7.55,-37.517l-83.22,0l-7.551,37.517c-17.858,4.616 -34.72,11.691 -50.229,20.833l-31.891,-21.204l-29.425,29.421l-29.421,29.421l21.208,31.895c-9.146,15.505 -16.221,32.371 -20.833,50.23l-37.517,7.55l0,83.221l37.517,7.55c4.612,17.857 11.687,34.72 20.833,50.224l-21.208,31.896l29.421,29.421l29.425,29.425l31.891,-21.208c15.509,9.141 32.371,16.22 50.229,20.833l7.551,37.517l83.22,0l7.55,-37.517c17.863,-4.613 34.725,-11.692 50.225,-20.833l31.9,21.208l29.421,-29.425l29.425,-29.421l-21.208,-31.896c9.137,-15.504 16.216,-32.367 20.829,-50.224l37.521,-7.55l0,-83.221l-37.521,-7.55Z" style="fill:url(#_Linear2);"/><path d="M831.008,3895.27l-119.841,-104.475c-9.83,-8.571 -10.85,-23.483 -2.284,-33.309c8.567,-9.825 23.479,-10.846 33.309,-2.283l84.745,73.883l120.855,-134.795c8.704,-9.709 23.629,-10.521 33.337,-1.821c9.704,8.704 10.517,23.629 1.817,33.333l-151.938,169.467Z" style="fill:#ffd179;fill-rule:nonzero;"/><path d="M6304.54,1909.23l155.166,0l-47.499,-98.495l-155.168,0l47.501,98.495Z" style="fill:#ffdc7d;fill-rule:nonzero;"/><path d="M6231.96,1909.23l36.958,0l-47.5,-98.495l-36.959,0l47.501,98.495Z" style="fill:#ffdc7d;fill-rule:nonzero;"/><path d="M5695.92,1791.93l628.208,0l-20.833,-49.25l-628.209,0l20.834,49.25Z" style="fill:#ffdc7d;fill-rule:nonzero;"/><path d="M634.496,3046.15l202.225,0l-61.896,-128.375l-202.221,0l61.892,128.375Z" style="fill:#ffd179;fill-rule:nonzero;"/><path d="M539.875,3046.15l48.187,0l-61.9,-128.375l-48.183,0l61.896,128.375Z" style="fill:#ffd179;fill-rule:nonzero;"/><rect x="2555.26" y="3667.22" width="1024.91" height="1024.9" style="fill:#4ba2f4;fill-rule:nonzero;"/><rect x="1452.45" y="2563.68" width="1024.91" height="1024.91" style="fill:#f0f0f0;fill-rule:nonzero;"/><rect x="4288.67" y="3662.36" width="1024.92" height="1024.93" style="fill:#f0f0f0;fill-rule:nonzero;"/><rect x="5391.46" y="3662.36" width="1024.92" height="1024.93" style="fill:#4ba2f4;fill-rule:nonzero;"/><rect x="2555.26" y="4765.17" width="1024.91" height="1024.92" style="fill:#f0f0f0;fill-rule:nonzero;"/><rect x="2555.26" y="5868" width="1024.91" height="1024.92" style="fill:#ffdf69;fill-rule:nonzero;"/><rect x="4288.67" y="5868" width="1024.92" height="1024.92" style="fill:#f0f0f0;fill-rule:nonzero;"/><rect x="1452.45" y="4767.62" width="1024.91" height="1024.92" style="fill:#f0f0f0;fill-rule:nonzero;"/><path d="M6416.33,5868c0,0 -0.709,474.417 -111.917,876.583l-237.042,148.334l-835.708,0c158.791,-422.5 159.749,-1024.92 159.749,-1024.92l1024.92,0Z" style="fill:#ffdf69;fill-rule:nonzero;"/><path d="M6067.38,6892.92l0,-151.75l237.042,0l-237.042,151.75Z" style="fill:#deba35;fill-rule:nonzero;"/><path d="M5313.5,4765.17c0,0 -0.709,474.416 -111.917,876.541l-237,148.375l-835.708,0c158.792,-422.541 159.75,-1024.92 159.75,-1024.92l1024.88,0Z" style="fill:#4ba2f4;fill-rule:nonzero;"/><path d="M4964.58,5790.08l0,-151.791l237,0l-237,151.791Z" style="fill:#375eab;fill-rule:nonzero;"/><rect x="5391.46" y="2564.42" width="1024.92" height="1024.91" style="fill:#f0f0f0;fill-rule:nonzero;"/><path d="M5313.5,2564.42c0,0 -0.709,474.412 -111.917,876.563l-237,148.349l-835.708,0c158.792,-422.524 159.75,-1024.91 159.75,-1024.91l1024.88,0Z" style="fill:#ffdf69;fill-rule:nonzero;"/><path d="M4964.58,3589.33l0,-151.787l237,0l-237,151.787Z" style="fill:#deba35;fill-rule:nonzero;"/><path d="M2477.32,5868c0,0 -0.721,474.417 -111.925,876.583l-237.021,148.334l-835.7,0c158.775,-422.5 159.729,-1024.92 159.729,-1024.92l1024.92,0Z" style="fill:#f0f0f0;fill-rule:nonzero;"/><path d="M2128.38,6892.92l0,-151.75l237.021,0l-237.021,151.75Z" style="fill:#c9c9c9;fill-rule:nonzero;"/><rect x="7060.67" y="3667.22" width="1024.92" height="1024.9" style="fill:#ffdf69;fill-rule:nonzero;"/><rect x="7060.67" y="2563.68" width="1024.92" height="1024.91" style="fill:#f0f0f0;fill-rule:nonzero;"/><rect x="8163.5" y="2563.68" width="1024.88" height="1024.91" style="fill:#f0f0f0;fill-rule:nonzero;"/><rect x="8163.5" y="4765.17" width="1024.88" height="1024.92" style="fill:#f0f0f0;fill-rule:nonzero;"/><rect x="8163.5" y="5868" width="1024.88" height="1024.92" style="fill:#ffdf69;fill-rule:nonzero;"/><rect x="7060.67" y="4767.62" width="1024.92" height="1024.92" style="fill:#f0f0f0;fill-rule:nonzero;"/><path d="M8085.54,5868c0,0 -0.709,474.417 -111.917,876.583l-237.042,148.334l-835.708,0c158.791,-422.5 159.75,-1024.92 159.75,-1024.92l1024.92,0Z" style="fill:#f0f0f0;fill-rule:nonzero;"/><path d="M7736.58,6892.92l0,-151.75l237.042,0l-237.042,151.75Z" style="fill:#c9c9c9;fill-rule:nonzero;"/><path d="M6416.33,4765.17c0,0 -0.709,474.416 -111.917,876.541l-237.042,148.375l-835.708,0c158.791,-422.541 159.749,-1024.92 159.749,-1024.92l1024.92,0Z" style="fill:#f0f0f0;fill-rule:nonzero;"/><path d="M6067.38,5790.08l0,-151.791l237.042,0l-237.042,151.791Z" style="fill:#c9c9c9;fill-rule:nonzero;"/><rect x="9863.88" y="4844.96" width="461.874" height="32.417" style="fill:#ffd887;fill-rule:nonzero;"/><rect x="9863.88" y="4906" width="461.874" height="136.125" style="fill:#ffd887;fill-rule:nonzero;"/><rect x="4093.78" y="1881.69" width="250.138" height="18.675" style="fill:#ffdc7d;fill-rule:nonzero;"/><rect x="4093.78" y="1908.53" width="250.138" height="50.575" style="fill:#ffdc7d;fill-rule:nonzero;"/><rect x="10401.6" y="4670.46" width="20.376" height="381.417" style="fill:#ffd989;fill-rule:nonzero;"/><rect x="3877.16" y="2006.15" width="64.463" height="5296.76" style="fill:url(#_Linear3);"/><rect x="6706.29" y="2006.15" width="64.458" height="5296.76" style="fill:url(#_Linear4);"/><rect x="4328.58" y="2116.53" width="1888.08" height="200.371" style="fill:url(#_Linear5);"/><path d="M7326.46,1469.9l-161.708,-70.275c-13.25,-5.763 -19.333,-21.188 -13.583,-34.441c5.792,-13.263 21.208,-19.338 34.458,-13.58l114.333,49.7l82.584,-183.004c5.958,-13.179 21.458,-19.046 34.625,-13.096c13.166,5.946 19.041,21.45 13.083,34.63l-103.792,230.066Z" style="fill:#ffdc7d;fill-rule:nonzero;"/><path d="M7157.42,1122c-127.834,89.808 -158.75,266.858 -68.917,394.671c89.792,127.812 266.833,158.725 394.667,68.916c127.791,-89.812 158.708,-266.862 68.916,-394.675c-89.833,-127.808 -266.875,-158.725 -394.666,-68.912Zm352.875,502.221c-149.084,104.775 -355.667,68.708 -460.459,-80.404c-104.75,-149.113 -68.708,-355.671 80.417,-460.451c149.125,-104.783 355.667,-68.712 460.458,80.4c104.792,149.117 68.709,355.671 -80.416,460.455Z" style="fill:#ffdc7d;fill-rule:nonzero;"/><path d="M10709.3,7167.29c0,0 22.125,-33.5 25.749,-53.209c3.626,-19.666 14.709,-30.916 14.709,-30.916c0,0 83.834,-12.167 116.042,-42.084c32.208,-29.916 100.458,-111.375 132.708,-86.958c32.209,24.417 -23.375,127.125 -56.25,158.167c-32.875,31.041 -77.416,85.416 -117.875,81.416c-40.417,-4.041 -95.5,-23.25 -115.083,-26.416Z" style="fill:#cfbfb8;fill-rule:nonzero;"/><path d="M10709.3,7162.17l40.458,-79c0,0 -193.583,-35.459 -250.167,-69.542c-14.208,-8.542 -28.333,-17.125 -41.458,-25.25c-29.917,-18.458 -54.708,-34.417 -63.458,-41.833c-27.917,-23.792 -139.959,-103.167 -170.25,-132.292c-30.25,-29.167 -66,-11.375 -113.167,-10.917c-47.208,0.5 -218.125,47.834 -269.25,54.625c-51.125,6.75 -235.75,41.084 -235.75,41.084c32.5,88.833 1103.04,263.125 1103.04,263.125Z" style="fill:#25354d;fill-rule:nonzero;"/><path d="M9595.46,6896.17c0,0 104.167,15 130.959,17.041c27.416,2.084 182.541,14.584 257.333,21.75c74.792,7.167 221.75,2.875 250.917,15.709c29.125,12.833 197.625,69.916 252.75,87.708c55.166,17.833 413.458,83.417 413.458,83.417c0,0 6.166,48.541 -25.541,85.833c0,0 -157.959,-14.125 -241.293,-1.875c-83.375,12.25 -228.958,-6.417 -317.291,-46.5c-88.375,-40.083 -228.417,-3.5 -306.709,24c-78.291,27.5 -377.541,49.583 -414.874,41.208c-37.375,-8.375 -111.834,-44.333 -165.792,-103c-53.958,-58.666 166.083,-225.291 166.083,-225.291Z" style="fill:#2f4563;fill-rule:nonzero;"/><path d="M10875.3,7207.62c0,0 13.333,-37.917 12.083,-57.875c-1.251,-20 4.833,-29.542 4.833,-29.542c0,0 80.333,-36.125 104.375,-72.916c24.042,-36.834 70.542,-132.375 107.708,-116.5c37.167,15.916 8.084,129.041 -16.292,167.083c-24.416,38.083 -39.5,139.375 -79.708,145.25c-40.249,5.875 -113.291,-37.208 -132.999,-35.5Z" style="fill:#eddad3;fill-rule:nonzero;"/><path d="M9361.29,6829.46c0,0 -131.667,298.792 72.708,371.209c163,57.791 463.5,4.583 463.5,4.583l-184.875,-291.292l-351.333,-84.5Z" style="fill:#2f4563;fill-rule:nonzero;"/><path d="M9700.17,5702.04c-50.125,11.166 -20.251,137 -53.833,313c-33.625,175.958 -139.667,203.458 -139.667,203.458c0,0 47.083,-78.042 41.958,-159.625c-4.042,-63.75 -81.25,-237.667 -4.917,-351.333c58.958,-87.834 162.876,-8.084 162.876,-8.084l-6.417,2.584Z" style="fill:#323657;fill-rule:nonzero;"/><path d="M9624.75,6068.42l97.459,100.333c0.916,-18.417 7.666,-40.833 14.625,-59.542c3.374,-9.125 6.874,-17.416 9.666,-23.791c3.667,-8.417 6.291,-13.667 6.291,-13.667l-86.957,-91.958l-41.084,88.625Z" style="fill:#eea886;fill-rule:nonzero;"/><path d="M9740.79,6158.88c0,0 3.749,48.25 30,92.75c26.292,44.5 69.708,118.375 63.541,166.417c-6.125,48.041 -26.583,65.458 -45.042,82.791c-18.458,17.292 -69.124,142.084 -75.291,190.125c-6.125,48.042 -10,147.834 1.667,221.209c0,0 -341.834,39.666 -376.209,-20.042c0,0 42.417,-192.042 62.459,-240.167c20,-48.125 61.875,-336.041 79.833,-385c17.958,-48.958 60.334,-96.291 86.25,-130.25c23.125,-30.291 65.292,-86.75 65.292,-86.75l107.5,108.917Z" style="fill:#ffb555;fill-rule:nonzero;"/><path d="M9783.5,5712.29c45.125,3 142,37.041 143.583,157.708c0,0 -7.291,31.625 -17.958,55.917c-10.708,24.291 3.292,101.166 -3,104.125c-6.334,3 -31.208,4.875 -31.208,4.875c0,0 -35.542,78.083 -63.917,74.083c-28.416,-3.958 -133.625,-38.667 -172.75,-145.458c-39.125,-106.792 -36.916,-263.417 145.25,-251.25Z" style="fill:#eea886;fill-rule:nonzero;"/><path d="M9927.08,5870c0,0 -78.542,41.25 -151.958,42.917c-73.459,1.666 -133.625,119.416 -133.625,119.416c0,0 -88.916,-199.5 12.875,-300.708c101.541,-100.917 304.459,1.708 272.708,138.375Z" style="fill:#323657;fill-rule:nonzero;"/><path d="M9757.92,5912.21c1.25,-14.041 -11.916,-36.833 -37.041,-20.375c-25.125,16.459 -2,86.584 17.542,82.209c19.541,-4.334 18.25,-47.334 19.499,-61.834Z" style="fill:#eea886;fill-rule:nonzero;"/><path d="M9676.79,6029.62c1.376,2.292 37.126,60.875 60.043,79.583c3.374,-9.125 6.874,-17.416 9.666,-23.791c0,0 -51.084,-30.459 -69.709,-55.792Z" style="fill:#a77860;fill-rule:nonzero;"/><path d="M10404.8,7009.92l-477.667,-90.167l7.875,-41.583l477.667,90.166l-7.875,41.584Z" style="fill:#c4c4c4;fill-rule:nonzero;"/><path d="M10679.8,6609.04l-274.875,400.916l-34.916,-23.916l274.916,-400.917l34.875,23.917Z" style="fill:#c4c4c4;fill-rule:nonzero;"/><path d="M10313.5,6949.62c2.376,-10.625 0,-28.333 -33.416,-46.25c-33.459,-17.875 -105.667,-58.625 -131.042,-59.583c-25.375,-1 -75.375,3 -85.667,2.958c-10.25,-0.042 16.084,60.417 16.084,60.417l234.041,42.458Z" style="fill:#eea886;fill-rule:nonzero;"/><path d="M10075.1,6851.38c0,0 -139.374,-54.833 -162,-65.75c-22.625,-10.917 -128.167,-46.417 -137.5,-51.125c-9.375,-4.667 -53.499,-268.125 -57.374,-334.458c-3.918,-66.334 -7.834,-206.792 -82.709,-200.542c-74.917,6.25 -92.875,55.417 -83.5,152.167c9.375,96.75 64.75,443.208 88.166,454.916c23.417,11.709 292.126,71.792 433.834,100.084c135.584,27.041 1.083,-55.292 1.083,-55.292Z" style="fill:#eea886;fill-rule:nonzero;"/><path d="M9725.88,6420.67c0,0 -107.958,20.125 -170.208,26.416c0,0 -77.417,-220.625 28,-255.875c124.958,-41.75 152.875,129.209 142.208,229.459Z" style="fill:#eddad3;fill-rule:nonzero;"/><path d="M7910.38,5454.46c0,0 -31.917,-12.666 -34.167,-32.791c-1.958,-17.125 -16.166,-38.375 -20.541,-44.917c-5.834,-8.75 -14.542,-42.167 -24.792,-35.042c-10.208,7.125 11.875,55.709 14.625,66.75c2.75,11.084 -40.792,-12.5 -51.708,-10.375c-10.875,2.125 -40.584,78.5 -9.042,91.167c31.5,12.625 72.125,4.583 77.292,7.958c5.166,3.334 22.624,10.125 22.624,10.125l25.709,-52.875Z" style="fill:#eea886;fill-rule:nonzero;"/><path d="M8739.08,7494.17c0,0 22.167,41 36.667,57.25c14.5,16.291 70,45.375 70.292,93.708c0.333,52.458 -93.542,37.875 -130.25,35.958c-36.709,-1.916 -39.5,-29.916 -54.958,-59.583c-15.464,-29.667 -31.005,-24.667 -33.917,-48.583c-2.875,-23.959 14.958,-78.75 14.958,-78.75l97.208,0Z" style="fill:#202338;fill-rule:nonzero;"/><path d="M8180.29,7489.38c0,0 -45.208,50.042 -91.125,60.542c-45.917,10.5 -78.042,23.875 -78.417,52.583c-0.333,28.708 132.167,47.667 184.708,18.708c78.459,-43.25 86.417,-30.208 95.125,-51.791c8.667,-21.625 -10.458,-79.375 -9.875,-86.25c0.667,-8.5 -100.416,6.208 -100.416,6.208Z" style="fill:#202338;fill-rule:nonzero;"/><path d="M8185.38,7465.42c0,0 -5.958,23.458 -5.083,23.958c0.916,0.5 103.5,12.625 100.416,-6.208c-2.541,-15.25 -6.125,-31.834 -6.125,-31.834l-89.208,14.084Z" style="fill:#81807e;fill-rule:nonzero;"/><path d="M8643.17,7478.33c0,0 -4.292,22.375 -3.459,22.917c0.834,0.542 104.042,18.792 103.417,0.208c-0.458,-14.75 -9.5,-31.958 -9.5,-31.958l-90.458,8.833Z" style="fill:#81807e;fill-rule:nonzero;"/><path d="M8278.67,6061.75c0,0 -37.292,359.125 -56.709,482.042c-22.667,143.75 -30.375,262.5 -36.708,336.916c-7.958,93.584 -9.5,553.875 -15.083,581.25c-5.542,27.375 123.625,7.542 123.625,7.542c0,0 63.5,-601.458 87.208,-701.083c22.083,-92.792 104,-492.334 124.125,-467c20.166,25.333 45.125,466.25 60.037,539.416c14.921,73.209 60.255,646.167 60.255,646.167c0,0 102.791,20.292 130.167,-2.667c0,0 12.416,-493.75 2.916,-631c-3.625,-52.291 61.833,-626.958 -22.083,-858.333c-44.333,-122.25 -457.75,66.75 -457.75,66.75Z" style="fill:#292c47;fill-rule:nonzero;"/><path d="M8969.67,5668.38c21.666,59.25 -177.251,207.625 -152.5,212.167c24.666,4.541 23.625,51.458 23.625,51.458c0,0 187.333,-163.125 183.5,-211.167c-2.167,-26.708 -148.792,-414.625 -171.209,-430.666c-15.249,-10.959 -111.166,-49.417 -160.916,-68.292c-23,-8.75 -40.547,-14.875 -44.125,-15.083c-11.375,-0.709 -151.667,12.708 -151.667,12.708c0,0 -20.125,6.917 -40.708,16.333c-35.084,16.125 -89.792,41.292 -129.042,60c-12.708,6.042 -28.542,14.209 -41.708,21.167c1.583,47.667 4.416,98.792 8.458,153.417c0,0 7.292,119.416 7.958,239.958c6.292,27.292 5.208,90.708 5.208,90.708c1.709,60.167 -4.958,121.959 -6.708,156.459c-2.749,54.291 -10.208,131.541 -10.208,131.541l68.208,27.834l298.876,-2.792l93.583,-25.042c0,0 -5.584,-240.333 -4.167,-310.208c1.291,-67.292 15.458,-242.125 18.208,-252.25c0,0 100.209,-145.542 205.334,141.75Z" style="fill:#dbd8e3;fill-rule:nonzero;"/><path d="M8298.62,6063.58c0,0 205.291,17.459 385.125,0l0,59c0,0 -267.792,25.542 -394.125,-11.25l9,-47.75Z" style="fill:#1d2033;fill-rule:nonzero;"/><path d="M8281.62,5316.12c1.583,48.458 3.917,100.458 8.042,156.125c0,0 3.874,135.958 11.708,264.917c2.667,18.458 4,37.333 2.5,56.666c-1.958,25.209 -4.666,52.75 -7.958,81.459c-0.042,0.375 -0.084,0.75 -0.125,1.083c-0.792,6.833 -1.625,13.708 -2.417,20.625c0,0.125 -0.042,0.167 -0.042,0.292c-17.458,143.666 -47.041,308.5 -62.458,358.375c-3.25,10.375 8,20.041 16,27.458l56.167,35.375c0,0 23.125,-213.125 30.833,-285.458c7.417,-69.834 30.75,-163.417 40.958,-254.625l0,-0.042c12.958,-115.75 30.792,-229.125 40.459,-296.458c25.042,-175.375 58.416,-253.834 58.416,-253.834c-15.958,4.75 -192.083,88.042 -192.083,88.042Z" style="fill:#323657;fill-rule:nonzero;"/><path d="M8950.08,5653.04c24.376,53.375 -154.291,216.458 -152.208,222c12.166,32.083 58.667,90.833 58.667,90.833c0,0 276.666,-297.208 273,-333.792c-2.625,-26.666 -234.584,-322.833 -257.001,-338.875c-12.916,-9.291 -108.749,-43.25 -155.749,-61.791c-8.625,-3.417 -36.625,-13.959 -44.296,-16.875c-9.996,11.083 -80.084,86.5 -104.329,373.125c-4.125,48.333 8.791,150.625 17.458,234.125c9.208,89.125 19.375,158.625 26.875,233.125c14.708,146.791 25,263.583 25,263.583l146.084,-65.042c23.624,-11.833 64.541,-42.666 55.624,-67.583c-33.749,-94.583 -84.417,-273.833 -84.458,-356.833c0,0 38.583,-277.292 51.5,-321.959c0,0 116.625,86.25 143.833,145.959Z" style="fill:#323657;fill-rule:nonzero;"/><path d="M8635.08,5221.71c0,0 0.958,-48.166 19.546,-145.583c4.959,-26.083 -151.458,68.625 -151.458,68.625c0,0 0.5,9.125 0.833,21.458c0.167,6.5 0.25,13.917 0.208,21.334c0,2.625 -0.041,5.208 -0.083,7.791c-0.167,6.875 -0.458,13.5 -1.083,19.084c-0.584,5.791 -4,16 -5.209,18.791c-6.458,14.875 84.584,26.167 137.246,-11.5Z" style="fill:#eea987;fill-rule:nonzero;"/><path d="M8537.46,5272.17l-25.916,34.833c0,0 15.208,20.333 42.162,5.333l-16.246,-40.166Z" style="fill:#d44040;fill-rule:nonzero;"/><path d="M8518.5,5308.42c0,0 -98.333,378.541 -78.084,673.166l33.084,58.292l30.958,-61.042c0,0 8.5,-527.083 35.459,-671.375l-21.417,0.959Z" style="fill:#d44040;fill-rule:nonzero;"/><path d="M8509.71,5239.71l27.75,32.459c0,0 44.538,-8.625 57.626,-31.917c13.083,-23.25 -85.376,-0.542 -85.376,-0.542Z" style="fill:#eea987;fill-rule:nonzero;"/><path d="M8503.33,5211.29c0,0 3.249,24.75 34.124,60.875l-33.708,45.291l-18.25,-94l17.834,-12.166Z" style="fill:#c4c1cc;fill-rule:nonzero;"/><path d="M8637.67,5187.71c0,0 -55.167,66.667 -100.209,84.459l20.959,51.791l104.829,-112.666l-25.579,-23.584Z" style="fill:#c4c1cc;fill-rule:nonzero;"/><path d="M7827.54,5508.54c0,0 237.583,258.125 293.666,244.333c25.917,-6.375 65.209,-51.125 97.625,-93.167c10.709,-13.875 21.209,-28.416 31.167,-42.791c0.042,-0.042 0.042,-0.084 0.042,-0.084c39.792,-57.458 71,-112.541 71,-112.541c0,0 117.666,-137.875 23.25,-199.375c0,0 -39.792,-4 -62.459,12.708c-20.875,15.417 -71.708,112.458 -79.958,130.458c-8.25,17.959 -72.458,144.834 -78.458,148.584c-6,3.791 -69.042,-34.084 -102.75,-56.75c-54.459,-36.667 -122.917,-100.584 -122.917,-100.584l-70.208,69.209Z" style="fill:#323657;fill-rule:nonzero;"/><rect x="8450" y="6066.71" width="96.042" height="72.833" style="fill:#3a4066;fill-rule:nonzero;"/><path d="M8504.21,5187.54c0,2.625 -0.041,5.208 -0.083,7.791c89.458,-30.041 106.75,-75.208 106.75,-75.208c-27.879,19.75 -106.875,46.083 -106.875,46.083c0.167,6.5 0.25,13.917 0.208,21.334Z" style="fill:#a77860;fill-rule:nonzero;"/><path d="M8830.17,5874.04c0,0 -8.459,7.083 -17.458,7c-15.459,-0.125 -33.084,-16.959 -49.292,-1.667c-16.167,15.292 17.875,80.333 30.166,87.958c12.292,7.625 40.167,-6.083 70.042,-42.166c29.833,-36.084 -33.458,-51.125 -33.458,-51.125Z" style="fill:#eea886;fill-rule:nonzero;"/><path d="M8769.62,5875.04c0,0 -31.334,10.75 -64.713,27.041c-29.291,14.292 -63.666,36.125 -60.162,43.542c5.333,11.25 31.458,-9.875 61.458,-22.083c27.584,-11.209 24.042,-4.334 24.042,-4.334c0,0 0.917,-2 -26.791,16.167c-29.797,19.5 -60.959,41.708 -58.209,47.833c3.412,7.625 4.5,8.292 16.459,2.959c-6.209,4.541 -5.838,6.916 -4.209,9.75c8.584,14.5 56.787,-7.25 75.958,-15.917c-14.666,6.75 -24.708,13.25 -13.75,18.792c12.584,6.291 79.375,-27.625 104.501,-37.459c27.374,-10.708 -54.584,-86.291 -54.584,-86.291Z" style="fill:#eea886;fill-rule:nonzero;"/><path d="M8797.88,5875.04c0,0 6.792,39.833 58.667,90.833c0,0 118.833,-131.125 140.041,-155.667l-92.999,-53.958l-105.709,118.792Z" style="fill:#323657;fill-rule:nonzero;"/><path d="M8465.46,4895.42c0,0 -48.208,53.958 -33.958,67.541c11.792,11.25 -32.458,64.959 -38.708,73.959c-6.25,9 20.666,23.041 25.249,30.916c4.543,7.834 3.834,90.834 26.876,98.834c23.042,8 138.333,-3.584 174.495,-26.792c36.172,-23.208 92.463,-153.625 86.838,-215.625c-5.671,-62.042 -155.958,-123 -240.792,-28.833Z" style="fill:#eea886;fill-rule:nonzero;"/><path d="M8455.58,4907.25c0,0 -18.125,-75.083 55.667,-109.917c73.829,-34.833 167.292,79.584 179.375,85.959c12.037,6.416 83.916,28.875 16.416,148.375c-57.999,102.583 -63.541,106.166 -63.541,106.166c0,0 -8.421,-69.5 -19.458,-82.416c-17.292,-20.167 -64.046,-27.5 -64.046,-27.5c0,0 35.712,-52.792 3.504,-69.167c-32.167,-16.375 -70.292,-56.083 -107.917,-51.5Z" style="fill:#323657;fill-rule:nonzero;"/><path d="M8604.33,5003.38c4.875,-7.208 22.792,-39.125 47.371,-12c24.546,27.083 -38.5,80.208 -43.834,79.792c-5.286,-0.375 -44.911,-6.834 -3.537,-67.792Z" style="fill:#eea886;fill-rule:nonzero;"/><path d="M7689.25,5722.33c0,0 -14.333,56.417 -16.292,64.917c-1.958,8.5 -90.416,-14.917 -90.416,-14.917l0.083,-69c0,0 96.291,9.709 106.625,19Z" style="fill:#666fb3;fill-rule:nonzero;"/><path d="M7674.71,5780.04c0,0 24.749,37.625 50.708,55.666c25.916,18 126.041,41.334 140.625,58.667c10.583,12.542 25.25,59.917 -135.375,38.292c-114.125,-15.375 -170.417,-11.5 -180.667,-31.375c-10.292,-19.917 32.542,-135.125 32.542,-135.125c0,0 24.417,13.291 92.167,13.875Z" style="fill:#2d314f;fill-rule:nonzero;"/><path d="M7654.71,7905.33l373.917,-3843.59l-40.416,-3.921l-373.917,3843.59l40.416,3.916Z" style="fill:#b8b8b8;fill-rule:nonzero;"/><path d="M7001.12,7841.92l373.875,-3843.6l-40.375,-3.92l-373.917,3843.6l40.417,3.917Z" style="fill:#b8b8b8;fill-rule:nonzero;"/><path d="M7999.04,4155.2l3.916,-40.408l-653.583,-63.429l-3.917,40.408l653.584,63.429Z" style="fill:#b8b8b8;fill-rule:nonzero;"/><path d="M7969.54,4459.12l3.959,-40.417l-653.625,-63.416l-3.917,40.416l653.583,63.417Z" style="fill:#b8b8b8;fill-rule:nonzero;"/><path d="M7940.08,4763.04l3.917,-40.417l-653.584,-63.417l-3.958,40.417l653.625,63.417Z" style="fill:#b8b8b8;fill-rule:nonzero;"/><path d="M7910.58,5066.96l3.917,-40.416l-653.583,-63.417l-3.958,40.417l653.624,63.416Z" style="fill:#b8b8b8;fill-rule:nonzero;"/><path d="M7881.08,5370.88l3.917,-40.417l-653.583,-63.416l-3.917,40.416l653.583,63.417Z" style="fill:#b8b8b8;fill-rule:nonzero;"/><path d="M7851.58,5674.79l3.917,-40.375l-653.583,-63.459l-3.917,40.417l653.583,63.417Z" style="fill:#b8b8b8;fill-rule:nonzero;"/><path d="M7822.08,5978.71l3.916,-40.375l-653.583,-63.458l-3.917,40.417l653.584,63.416Z" style="fill:#b8b8b8;fill-rule:nonzero;"/><path d="M7792.58,6282.67l3.917,-40.417l-653.583,-63.417l-3.917,40.375l653.583,63.459Z" style="fill:#b8b8b8;fill-rule:nonzero;"/><path d="M7763.08,6586.58l3.917,-40.416l-653.583,-63.417l-3.917,40.375l653.583,63.458Z" style="fill:#b8b8b8;fill-rule:nonzero;"/><path d="M7733.58,6890.5l3.958,-40.417l-653.625,-63.416l-3.917,40.416l653.584,63.417Z" style="fill:#b8b8b8;fill-rule:nonzero;"/><path d="M7704.12,7194.42l3.917,-40.417l-653.625,-63.417l-3.917,40.417l653.625,63.417Z" style="fill:#b8b8b8;fill-rule:nonzero;"/><path d="M7674.62,7498.33l3.917,-40.416l-653.584,-63.417l-3.958,40.417l653.625,63.416Z" style="fill:#b8b8b8;fill-rule:nonzero;"/><path d="M7645.12,7802.25l3.917,-40.417l-653.584,-63.416l-3.916,40.416l653.583,63.417Z" style="fill:#b8b8b8;fill-rule:nonzero;"/><path d="M8554.12,3524.85c0,0 -8.375,10.342 -14.25,13.083c0,0 -11.041,4.171 -18.709,7.609c-2.416,1.1 -4.499,2.112 -5.791,2.908c-5.375,3.321 -16.166,12.208 -31.291,16.559c-15.125,4.349 -83.459,19.908 -83.459,19.908l-15.875,-40.551l-11.375,-32.749c0,0 63.25,-81.958 76.834,-87.642c1.374,-0.546 2.707,-1.042 3.958,-1.404c12,-3.696 22.5,-1.4 29,-2.625c2.416,-0.434 26.499,-3.15 31.708,1.883c7.25,6.975 9.458,14.75 8.208,21.525c0,0 13.584,14.288 14.542,27.525c0,0 12.954,12.775 9.5,29.588c0,0 11.709,14.433 7,24.383Z" style="fill:#eea886;fill-rule:nonzero;"/><path d="M7821.62,4056.53c15.792,-10.163 36.208,-23.925 106.917,-59.283c131.583,-65.85 294.083,-185.217 325,-202.458c47.5,-26.509 197.583,-209.867 197.583,-209.867c-7.75,-27.621 -78.917,-83.046 -78.917,-83.046c0,0 -227.5,215.5 -277.208,242.025c-42.792,22.804 -253.958,45.85 -312.167,51.833c-9.416,0.971 -14.833,1.5 -14.833,1.5c-60.75,82.863 19.709,281.146 53.625,259.296Z" style="fill:#4ba2f4;fill-rule:nonzero;"/><path d="M7798.42,4534.25c0,0 64.374,239.083 81.333,324.542c14.791,74.458 44.541,272.791 48.792,319.916c4.208,47.167 -190.042,503.542 -210.25,585.959l-177.042,-28.417c0,0 186.75,-474.958 138.042,-580.542c-72.459,-156.958 -81.875,-152.25 -138.958,-281.541c-57.084,-129.334 -187.709,-132.375 -222.834,-372.334c0,0 433.417,-43.666 480.917,32.417Z" style="fill:#2d314f;fill-rule:nonzero;"/><path d="M7483.67,3372.71c0,0 117.542,-43.9 171.709,45.566c54.209,89.467 49,268.579 -10.25,290.604c-59.25,22.025 -148.25,10.509 -178.583,-45.471c-30.334,-55.983 -57.709,-136.92 -56.376,-191.003c1.292,-54.088 42.626,-84.084 73.5,-99.696Z" style="fill:#eea886;fill-rule:nonzero;"/><path d="M7625.38,3703.39c0,0 -4.75,30.809 3.125,45.984c7.833,15.175 -147.833,15.571 -147.833,15.571c0,0 -12.667,-82.546 -36.626,-152.292c-23.958,-69.746 181.334,90.737 181.334,90.737Z" style="fill:#eea886;fill-rule:nonzero;"/><path d="M7444.04,3612.65c0,0 10.751,17.725 54.626,10.85c43.875,-6.879 97.375,-65.233 115.666,-71.637c18.334,-6.409 18.5,-17.167 18.5,-17.167l11.459,16.75l19.458,1.229c0,0 -17.75,-52.196 9,-73.487c26.792,-21.288 -27.75,-168.95 -168.417,-119.788c0,0 -108.041,29.779 -104.124,91.221c3.958,61.442 19.666,131.429 43.832,162.029Z" style="fill:#d88a51;fill-rule:nonzero;"/><path d="M7629.92,3512.35c-2.459,-10.308 -28.667,-39.758 -38.709,-8.225c-10.041,31.533 15.167,73.946 29.209,70.317c14.083,-3.629 15.75,-35.967 9.5,-62.092Z" style="fill:#eea886;fill-rule:nonzero;"/><path d="M7181.67,4152.75c1.25,15.417 18.875,32.083 30.875,40.333c7.708,5.292 16.916,8.5 26.791,8.834l7,0.208l122.126,4.167c0,0 90.791,-293.454 -79.501,-405.367c-5.292,0.525 -119.125,210.383 -107.291,351.825Z" style="fill:#4ba2f4;fill-rule:nonzero;"/><path d="M7550,5901.29c10.25,19.875 66.542,16 180.667,31.375c31.166,4.166 55.75,5.791 75.041,5.541l6.667,-68.666c-33.375,-11.584 -72.208,-23.584 -86.958,-33.834c-25.959,-18.041 -50.708,-55.666 -50.708,-55.666c-67.75,-0.584 -92.167,-13.875 -92.167,-13.875c0,0 -42.834,115.208 -32.542,135.125Z" style="fill:#2d314f;fill-rule:nonzero;"/><path d="M7625.5,3740.42c0,0 -95.833,-22.291 -149.875,-4.053l-8.167,7.549c0,0 -16.416,31.476 45.375,34.179c61.834,2.709 158.959,7.205 112.667,-37.675Z" style="fill:#4ba2f4;fill-rule:nonzero;"/><path d="M7250.96,5986.21c0,0 -14.375,56.417 -16.333,64.917c-1.958,8.5 -90.417,-14.875 -90.417,-14.875l0.084,-69.042c0,0 96.291,9.709 106.666,19Z" style="fill:#666fb3;fill-rule:nonzero;"/><path d="M7317.5,4501.83c0,0 -32.25,133.084 -41.791,266.292c-8.834,123.125 -24.918,258.125 -37.667,386.917c-14.25,143.541 -54.875,375.583 -56.959,452.375c-2.125,76.791 -66.75,412.375 -66.75,412.375l165.292,18.958c0,0 107.417,-593 132.792,-653.625c25.374,-60.625 151.166,-492.792 155.416,-541.292c4.209,-48.5 -250.333,-342 -250.333,-342Z" style="fill:#2d314f;fill-rule:nonzero;"/><path d="M7236.38,6043.96c0,0 24.75,37.584 50.708,55.625c25.959,18.042 126.042,41.334 140.667,58.667c10.541,12.542 25.208,59.917 -135.417,38.292c-114.125,-15.375 -170.416,-11.5 -180.666,-31.375c-10.25,-19.875 32.541,-135.084 32.541,-135.084c0,0 24.417,13.25 92.167,13.875Z" style="fill:#2d314f;fill-rule:nonzero;"/><path d="M7831.88,4832.88c14.083,-2 -35,-421.75 -31.25,-448.083c2.542,-17.542 2.125,-153.959 1.125,-238.992l15.333,-86.054c8.542,-6.217 20,-13.4 33.708,-21.296c21.293,-12.304 48.042,-26.362 77.751,-41.208c-3.459,-20.325 -5.876,-36.333 -6.792,-45.688c-7.417,-75.592 -58.208,-115.65 -86.958,-132.513c-11.75,-6.874 -19.834,-9.891 -19.834,-9.891c-10.958,-4.637 -21.666,-9.133 -32.125,-13.421c-69.291,-28.529 -157.333,-55.313 -157.333,-55.313l-141.5,0c0,0 -107.667,21.521 -171.875,47.788c-8.209,3.371 -15.917,7.671 -23.167,12.721l19.209,403.325c0,0.083 0.041,0.167 0.041,0.25c0,0.125 0.042,0.292 0.084,0.542c8.625,56.708 17.75,123.666 20.791,170.583c1.25,19.167 -20.666,122.042 -32.083,216.5l-40.041,226c0,0 23.124,93.625 574.916,14.75Z" style="fill:#4ba2f4;fill-rule:nonzero;"/><rect x="9900.33" y="3191.89" width="6" height="627.634" style="fill:#ffce55;fill-rule:nonzero;"/><rect x="10325.7" y="3191.89" width="5.959" height="627.634" style="fill:#ffce55;fill-rule:nonzero;"/><rect x="10751" y="3191.89" width="6" height="627.634" style="fill:#ffce55;fill-rule:nonzero;"/><rect x="11176.4" y="3191.89" width="5.958" height="627.634" style="fill:#ffce55;fill-rule:nonzero;"/><rect x="11601.8" y="3191.89" width="6.001" height="627.634" style="fill:#ffce55;fill-rule:nonzero;"/><rect x="9903.33" y="3856.7" width="67.667" height="21.812" style="fill:#ffce55;fill-rule:nonzero;"/><rect x="9903.33" y="3114.55" width="101.875" height="16.363" style="fill:#ffce55;fill-rule:nonzero;"/><rect x="9903.33" y="3144.8" width="144.541" height="16.363" style="fill:#ffce55;fill-rule:nonzero;"/><rect x="10324.1" y="3114.55" width="119.583" height="16.363" style="fill:#ffce55;fill-rule:nonzero;"/><rect x="10324.1" y="3144.8" width="76.458" height="16.363" style="fill:#ffce55;fill-rule:nonzero;"/><rect x="10757" y="3114.55" width="74.125" height="16.363" style="fill:#ffce55;fill-rule:nonzero;"/><rect x="10757" y="3144.8" width="86.375" height="16.363" style="fill:#ffce55;fill-rule:nonzero;"/><rect x="11182.4" y="3114.55" width="107.958" height="16.363" style="fill:#ffce55;fill-rule:nonzero;"/><rect x="11182.4" y="3144.8" width="86.417" height="16.363" style="fill:#ffce55;fill-rule:nonzero;"/><rect x="11604.8" y="3114.55" width="64.501" height="16.363" style="fill:#ffce55;fill-rule:nonzero;"/><rect x="11604.8" y="3144.8" width="51.584" height="16.363" style="fill:#ffce55;fill-rule:nonzero;"/><rect x="10328.7" y="3856.7" width="67.667" height="21.812" style="fill:#ffce55;fill-rule:nonzero;"/><rect x="10757" y="3856.7" width="67.667" height="21.812" style="fill:#ffce55;fill-rule:nonzero;"/><rect x="11182.4" y="3856.7" width="67.667" height="21.812" style="fill:#ffce55;fill-rule:nonzero;"/><rect x="11607.8" y="3856.7" width="67.667" height="21.812" style="fill:#ffce55;fill-rule:nonzero;"/><path d="M11457.3,3633.04c-132.667,0.012 -248,-57.354 -368.208,-117.142c-148.458,-73.808 -301.917,-150.129 -506.416,-129.233c-130.584,13.346 -212.542,66.525 -284.876,113.441c-65.458,42.484 -127.375,79.842 -211.208,83.034c-135.5,5.154 -182.5,-52.634 -183.291,-56.159l0,-37.087c0.166,0.642 29.749,65.504 183.166,64.738c75.541,-0.384 131.292,-36.555 195.833,-78.438c75,-48.679 160.042,-103.846 297.458,-117.892c212.709,-21.737 369.959,56.454 522,132.067c159.126,79.125 310.959,153.325 502.959,88.95l0,30.487c-54.75,18.355 -98.5,23.229 -147.417,23.234Z" style="fill:#ffce55;fill-rule:nonzero;"/><path d="M10661,3625.94c-97.917,0.009 -175.583,-65.858 -251.625,-130.328c-57.667,-48.88 -117.5,-98.859 -186.542,-123.513c-210.708,-75.234 -318.541,62.146 -319.499,63.358l0,-41.791c1.166,-1.434 20.374,-26.401 75.999,-50.246c50.667,-21.704 135.667,-39.017 252.875,1.754c74.251,25.829 135.959,78.125 195.583,128.696c121.001,102.583 225.501,191.175 406.959,52.408c137.459,-105.109 267.041,-205.267 394.542,-241.858c124.666,-35.792 254.666,-9.592 376.333,112.091l-0.875,37.954c-258.5,-259.62 -478.583,-95.137 -752.667,114.455c-72.583,55.52 -135.166,77.016 -191.083,77.02Z" style="fill:#ffce55;fill-rule:nonzero;"/><path d="M609.012,7451.17c0,0 -1.116,-19.792 38.892,-42.75l-51.804,-54.917c0,0 -31.112,16.458 -61.904,44.833c-30.792,28.334 74.816,52.834 74.816,52.834Z" style="fill:#eea987;fill-rule:nonzero;"/><path d="M1852.53,7475.33c0,0 -3.942,-48.666 11.204,-72.333l-64.808,-13.25c0,0 -37.15,52.917 -35.196,84.625c1.954,31.708 88.8,0.958 88.8,0.958Z" style="fill:#eea987;fill-rule:nonzero;"/><path d="M725.738,7643.96c-0.676,18.334 0.329,28.459 -55.721,27.292c-56.05,-1.167 -107.775,-69.708 -143.879,-117.917c-36.13,-48.25 -84.421,-72.25 -52.53,-103.041c3.921,-3.75 8.054,-7.584 12.309,-11.417c30.195,-27.25 65.829,-53.792 70.604,-59.25c5.412,-6.25 53.45,63.375 53.45,63.375c0,0 -5.371,33.958 2.975,54.167c8.325,20.166 20.208,92.875 46.346,105.75l0.041,0c26.146,12.833 66.538,37 66.405,41.041Z" style="fill:#eea987;fill-rule:nonzero;"/><path d="M2015.46,7634.54c-37.246,-1.959 -142.708,-10.917 -201.591,-6.709c-58.884,4.25 -81.363,-5.5 -75.83,-47.458c0.288,-2.292 0.638,-4.583 1.034,-6.958c6.654,-41 24.841,-92.209 26.55,-109.375c1.8,-18.167 75.746,-5.584 75.746,-5.584c0,0 37.008,58.834 58.025,71.292c21,12.458 85,38.542 109.483,50.417c1.792,0.875 3.738,1.666 5.792,2.458l0.016,0c25.963,9.75 70.325,12.5 76.267,26.792c6.396,15.416 -38.229,27.041 -75.492,25.125Z" style="fill:#eea987;fill-rule:nonzero;"/><path d="M2015.46,7634.54c-37.246,-1.959 -142.708,-10.917 -201.591,-6.709c-58.884,4.25 -81.363,-5.5 -75.83,-47.458c0.288,-2.292 0.638,-4.583 1.034,-6.958c14.462,-9.334 116.037,0 175.941,9.833c59.901,9.792 99.655,-0.625 99.655,-0.625l0.016,0c25.963,9.75 70.325,12.5 76.267,26.792c6.396,15.416 -38.229,27.041 -75.492,25.125Z" style="fill:#004e8c;fill-rule:nonzero;"/><path d="M727.512,7643.38c-0.675,18.292 -1.445,29.042 -57.495,27.875c-56.05,-1.167 -107.775,-69.708 -143.879,-117.917c-36.13,-48.25 -84.421,-72.25 -52.53,-103.041c3.921,-3.75 8.054,-7.584 12.309,-11.417c1.679,1.458 72.116,64.708 93.812,107.917c36.059,71.791 77.767,55.75 79.563,56.125l0.041,0c26.146,12.833 68.317,36.416 68.179,40.458Z" style="fill:#004e8c;fill-rule:nonzero;"/><path d="M2112.5,6916.54c-61.379,93.125 -248.759,541.166 -248.759,541.166l-147.479,-15.25c0,0 104.517,-314.166 155.738,-430.083c37.9,-85.75 89.987,-127.958 40.721,-152.125c-41.621,-20.458 -292.496,-121 -398.692,-178.375c-13.575,-7.333 -24.783,-13.958 -32.875,-19.583c-3.558,-2.5 -6.5,-4.792 -8.8,-6.875c-48.729,-44.209 61.162,-356.375 231.812,-256.625c0,0 371.375,296.666 399.425,346.958c28.059,50.333 70.309,77.625 8.909,170.792Z" style="fill:#ccc;fill-rule:nonzero;"/><path d="M1696.33,6389.17c0,0 -252.35,353.791 -481.237,544.875c-64.788,54.083 -117.525,98.958 -210.013,168.208c-49.162,36.833 -136.171,114.167 -206.891,178.5l-2.938,2.708c-50.433,45.917 -92.087,84.792 -104.925,96.834c-0.458,0.375 -0.858,0.75 -1.213,1.125l-1.429,1.333l-46.154,46.708l-66.012,-64.375c0,0 78.837,-95.25 123.9,-168.875c63.241,-103.291 155.516,-217.875 203.246,-250.916c81.77,-56.625 161.37,-90.334 191.479,-143.959c30.129,-53.583 133.733,-269.541 133.733,-269.541c0,0 23.958,-224.834 161.917,-274.459c130.004,-46.75 306.537,131.834 306.537,131.834Z" style="fill:#ccc;fill-rule:nonzero;"/><path d="M1841.46,5448.17c-6.5,9.375 -11.645,21.583 -15.683,34.666c-3.833,12.292 -6.692,25.375 -8.808,37.5c-4.592,26.334 -5.708,48.209 -5.708,48.209c0,0 -145.325,-42.792 -118.617,-75.459c26.7,-32.708 19.971,-138.083 19.971,-138.083c0,0 150.283,62.333 128.845,93.167Z" style="fill:#eea987;fill-rule:nonzero;"/><path d="M1945.02,5169.75c0,0 35.421,35.583 11.717,128.917c0,0 2.929,75.916 13.512,89.875c10.583,13.958 -32.25,15.75 -37.4,24.875c-5.158,9.166 -16.796,52.833 -48.338,77.375c-31.541,24.541 -172.391,-66.459 -176.262,-112.417c-3.862,-45.958 -91.442,-248.083 70.033,-245.375c161.471,2.667 166.738,36.75 166.738,36.75Z" style="fill:#eea886;fill-rule:nonzero;"/><path d="M1899.95,5995.67c-6.021,10.416 -12.692,21.291 -19.996,32.666c-19.725,30.875 -44.017,65.5 -72.942,105.792c-6.383,8.875 -14.229,18.75 -21.054,30.833c-37.379,66.084 -67.912,178.625 -78.196,219.25c-2.433,9.625 -3.596,14.584 -3.596,14.584c-195.12,4.208 -400.02,-122.709 -400.02,-122.709c128.333,-135.666 178.554,-240.416 178.554,-240.416c13.462,-36.834 21.591,-78.167 24.141,-132.75c7.355,-157.792 51.171,-244.834 93.717,-313.709c42.521,-68.875 92.092,-96.125 92.092,-96.125l119.3,72.375c13.908,44.792 62.592,94.75 110.417,204.25c35.279,80.834 28.312,138.25 -22.417,225.959Z" style="fill:#ffbf55;fill-rule:nonzero;"/><path d="M1963.21,5264.96c0,0 32.229,-195.041 -160.666,-173.708c-192.896,21.333 -110.23,243 -89.617,314.792c0,0 4.713,-108.834 96.625,-105.792c91.913,3.083 112.383,-16.792 153.658,-35.292Z" style="fill:#464240;fill-rule:nonzero;"/><path d="M1796.64,5271.62c-10.021,-20.792 -50.092,-12.958 -47.788,17.708c2.3,30.709 31.617,63.292 43.113,49.334c11.5,-13.917 19.395,-36.542 4.675,-67.042Z" style="fill:#eea987;fill-rule:nonzero;"/><path d="M1728.82,5149.67c0,0 -51.613,-57.167 -95.371,0.208c-43.763,57.417 36.433,147.708 74.987,100.333c38.559,-47.375 20.384,-100.541 20.384,-100.541Z" style="fill:#464240;fill-rule:nonzero;"/><path d="M1825.78,5482.83c-3.833,12.292 -6.692,25.375 -8.808,37.5c-47.438,-25.875 -79.196,-96.833 -79.196,-96.833c33.317,33.208 87.992,59.292 87.992,59.292l0.012,0.041Z" style="fill:#a77860;fill-rule:nonzero;"/><path d="M1701.76,5130.04c0,0 -23.529,-38.417 -77.837,-38.959c-54.304,-0.5 -120.992,81.667 -104.096,201.209c16.892,119.541 -21.7,259.166 -135.154,374.125c0,0 198.004,-106.709 216.3,-264.125c18.304,-157.375 73.942,-157.75 73.942,-157.75l26.845,-114.5Z" style="fill:#464240;fill-rule:nonzero;"/><path d="M2173.35,6287.5c0,0 52.017,0.958 64.254,2.875c12.242,1.875 38.413,9 41.958,6.583c3.546,-2.458 14.963,-51.25 23.871,-61.791c8.917,-10.584 40.546,-118.625 34.829,-117.834c-5.712,0.792 -25.362,28.667 -65.854,76.084c-40.491,47.375 -86.645,29.916 -102.958,41.083c-16.317,11.167 3.9,53 3.9,53Z" style="fill:#eea886;fill-rule:nonzero;"/><path d="M1481.15,6662.29c0,0 107.95,-126.709 116.187,-141.834c-4.391,9.667 -60.995,134.375 -83.312,161.417c-13.575,-7.333 -24.783,-13.958 -32.875,-19.583Z" style="fill:#919191;fill-rule:nonzero;"/><path d="M1899.95,5995.67c-6.021,10.416 -12.692,21.291 -19.996,32.666c0,0 -61.342,-186.708 -67.308,-232.708c0,0 57.987,130.667 87.304,200.042Z" style="fill:#bd8d3f;fill-rule:nonzero;"/><path d="M2195.59,6229.08c0,0 -193.416,-44.125 -288.054,-133.875c-24.77,-23.458 -122.196,-403 -122.196,-403c0,0 -26.766,-95.916 -111.537,-68.25c-84.771,27.709 -50.858,124.292 -50.858,124.292c0,0 117.191,300.292 179.221,417.125c51.612,97.167 394.879,129.458 394.879,129.458l-1.455,-65.75Z" style="fill:#ffbf55;fill-rule:nonzero;"/><path d="M1676.71,5503.83l27.309,-34.333l117.133,71.208l0.717,59.417l-145.159,-96.292Z" style="fill:#e0e0e0;fill-rule:nonzero;"/><path d="M2422.71,6026.54c-78.966,113.708 -132.079,237.708 -160.608,365l-0.112,0.166c-19.146,85.792 -27.263,173.042 -24.417,259.792c9.733,317.75 164.942,626.833 446.058,822.083c471.8,327.625 1119.69,210.834 1447.22,-260.833c327.646,-471.792 210.813,-1119.67 -260.975,-1447.29c-160.758,-111.666 -342.029,-171.75 -524.05,-183.583c-300.508,-19.667 -603.4,91.792 -819.825,318.25c-37.225,38.708 -71.771,81 -103.292,126.417Z" style="fill:#33a4ff;fill-rule:nonzero;"/><path d="M2371.97,5752.54l904.212,866.583l83.267,-1249.92c-361.963,-23.75 -726.796,110.542 -987.479,383.334Z" style="fill:#007fe6;fill-rule:nonzero;"/><path d="M2394.1,6006.54c-81.567,117.458 -136.425,245.541 -165.892,377.041l1047.97,235.542l-775.391,-743.125c-38.451,39.958 -74.134,83.667 -106.684,130.542Z" style="fill:#0064b5;fill-rule:nonzero;"/><path d="M2164.01,6369.17l-0.12,0.166c-20.988,94 -29.892,189.667 -26.767,284.75l1139.06,-34.958l-1112.17,-249.958Z" style="fill:#004e8c;fill-rule:nonzero;"/><path d="M5430,7351.17c0,0 31.625,47.375 76.041,57.625c44.417,10.208 88.167,26.5 88.5,54.5c0.334,28.041 -128.374,44.75 -179.207,16.5c-75.876,-42.167 -83.584,-29.459 -92.001,-50.542c-8.417,-21.083 10.125,-77.417 9.584,-84.125c-0.709,-8.292 97.083,6.042 97.083,6.042Z" style="fill:#353a3d;fill-rule:nonzero;"/><path d="M5425.08,7327.79c0,0 5.75,22.875 4.917,23.375c-0.875,0.5 -100.083,12.291 -97.083,-6.042c2.416,-14.917 5.875,-31.083 5.875,-31.083l86.291,13.75Z" style="fill:#81807e;fill-rule:nonzero;"/><path d="M5096.04,7348.04c0,0 22.583,45.291 61.166,60.75c41.25,16.458 74.333,35.458 73.584,62.75c-0.75,27.291 -100.834,55 -173.625,2.583c-46,-33.125 -60.583,-33.292 -67.959,-54.125c-7.375,-20.875 12.792,-75.042 12.542,-81.625c-0.333,-8.083 94.292,9.667 94.292,9.667Z" style="fill:#353a3d;fill-rule:nonzero;"/><path d="M5097.17,7324.5c0,0 -0.249,23.083 -1.124,23.542c-0.834,0.416 -96.751,8.333 -94.292,-9.667c1.917,-14.25 9.292,-31.5 9.292,-31.5l86.124,17.625Z" style="fill:#81807e;fill-rule:nonzero;"/><path d="M5448.79,5940.29c0,0 89.125,393 109.458,512.708c17.333,101.875 31.125,207.958 22.833,281.542c-10.291,91.041 -139.166,563 -133.791,589.708c5.375,26.667 -134.875,4.25 -134.875,4.25c0,0 98,-526.417 78.417,-624.417c-14.501,-72.541 -141.584,-554.625 -161.042,-529.875c-19.5,24.709 -43.625,454.959 -58.042,526.334c-14.458,71.458 -58.708,635.75 -58.708,635.75c0,0 -99,14.583 -125.459,-7.792c0,0 -12.041,-481.833 -2.875,-615.75c3.542,-51 -59.75,-611.792 21.375,-837.583c42.917,-119.292 442.709,65.125 442.709,65.125Z" style="fill:#2d3133;fill-rule:nonzero;"/><path d="M5836.62,5583.04c-63.5,-8.917 -263.292,79.583 -281.458,72.875c-12.459,-4.584 -41.75,-100.042 -62.709,-172.292c-12.375,-42.75 -21.791,-77.333 -23.125,-80.208l-0.083,-0.167c0.209,1.917 3.458,34.583 -0.667,77.542c-0.291,2.75 -1.541,3.5 -1.875,6.375c-0.083,0.708 -0.5,3.041 -0.792,3.75c-4.666,10.583 -6.374,30.5 -10.666,47.083c-6.333,24.458 -9.833,57.792 -7.292,92.542l0,0.125c-0.041,0.291 -0.041,0.541 -0.083,0.791c0,0.792 -0.042,1.584 -0.042,2.375c0,0.292 -0.041,0.625 -0.041,0.959c-1.75,61.875 2.499,128.583 4.291,164.083c2.792,54.958 -15.292,79.75 -15.833,80.458l-19.167,-2.666l-13.791,-1.959l-0.209,-0.041l-18.458,-2.584l-72.458,-10.166l-26.25,-3.709l-6.167,-0.875l-45.917,-6.458l-129.416,-18.208l-14.209,-2l-5.833,-0.792l-48.833,-6.917l-22.042,-3.083l-0.083,0c0,0 -18.75,-132.875 -20.167,-204.708c-1.292,-65.959 -36.625,-199.917 -42.375,-221.334c-0.042,-0.166 -0.084,-0.291 -0.125,-0.458c-0.041,-0.208 -0.083,-0.375 -0.167,-0.583c-0.083,-0.375 -0.166,-0.667 -0.25,-0.917c-0.042,-0.167 -0.083,-0.333 -0.124,-0.5c0,-0.042 0,-0.083 -0.042,-0.083l0,-0.167c-0.084,-0.167 -0.084,-0.208 -0.084,-0.208c0,0 -105.624,110.958 -126.125,159.375c-6.25,14.708 -25.333,54.666 -49.667,103.291c-16.666,-31.75 -27.083,-53.791 -27.083,-59.333c0,-0.667 0.042,-1.417 0.042,-2.167c1.583,-47.875 51.75,-242 91.333,-368.833c30.75,-61.792 57.25,-111.792 65.75,-117.875c12.917,-9.25 67.125,-32.458 114.459,-51.25c1.541,-0.625 3.083,-1.25 4.625,-1.833c4.417,-1.75 8.75,-3.459 13,-5.084c2.083,-0.833 4.166,-1.625 6.25,-2.416c1.125,-0.417 2.208,-0.834 3.333,-1.25c0.917,-0.375 1.792,-0.709 2.708,-1.042c23.667,-9 41.667,-15.292 45.375,-15.5c0.584,-0.042 1.584,-0.042 2.917,0c1.583,0.042 3.583,0.125 6,0.292c29.25,1.708 116.541,9.875 144.625,12.541c5.125,0.5 8.292,0.792 8.75,0.834l0.084,0c0,0 13.374,6.125 33.499,15.333l0.042,0l1.875,0.875c12.167,5.583 26.25,13 41.167,21.167c29.208,16 61.458,34.708 88.208,47.458c26.208,12.458 62.125,29.833 65.208,32.292l132.917,383.25l230.542,-42.125l-13.292,84.125Z" style="fill:#decbc4;fill-rule:nonzero;"/><path d="M5436.25,5879.33c0,0 9.75,11.625 12.542,60.959c0,0 -400.375,-46.709 -442.709,-65.125c0,0 -1.625,-54.334 7.334,-55.292c9.875,-1.042 422.833,59.458 422.833,59.458Z" style="fill:#495055;fill-rule:nonzero;"/><path d="M5094.83,5013.42c1.209,62.833 122.875,97.208 122.875,97.208c0,0 50.917,-63.792 38.751,-69.917c-4.792,-2.416 -6.709,-11.916 -7.292,-22.583c-0.584,-10.167 0.083,-21.417 0.666,-28.5c0.376,-4.458 0.709,-7.333 0.709,-7.333c0,0 -17.375,-18.334 -39.5,-40.167c-38.625,-38.208 -91.75,-87.167 -91.834,-67.708c0,1.041 0.125,2.291 0.417,3.708c9.375,43.833 -24.792,135.292 -24.792,135.292Z" style="fill:#eea886;fill-rule:nonzero;"/><path d="M5104.92,5829.5c0,0 -8.751,55.125 -9.5,69.5l-18.542,-3.708c0,0 5.125,-58.292 8.125,-68.084l19.917,2.292Z" style="fill:#353a3d;fill-rule:nonzero;"/><path d="M5402.83,5872.88c0,0 7.041,50.125 7.208,69.042l-19.584,-2.584c0,0 -4.041,-62.541 -6.292,-69.083l18.668,2.625Z" style="fill:#353a3d;fill-rule:nonzero;"/><path d="M5141.67,4921.33c0.25,0.375 5.417,8.084 14.208,19.167c18.708,23.5 53.791,62.125 93.292,77.625c-0.584,-10.167 0.083,-21.417 0.666,-28.5c4.042,-0.125 8.084,-0.583 12.084,-1.458c-10.834,-18.917 -26.459,-38.75 -26.459,-38.75l-24.416,-7.292l-69.375,-20.792Z" style="fill:#a77860;fill-rule:nonzero;"/><path d="M5118.33,4875.29c10.501,22.875 20.5,39.458 23.334,46.041c1.874,4.292 6.875,11.292 14.208,19.167c20.042,21.625 57.334,50.125 93.958,49.125c4.042,-0.125 8.084,-0.583 12.084,-1.458c14.791,-3.25 32.291,-10.125 41.875,-28.959c75.916,-148.583 20.958,-270.125 20.958,-270.125c0,0 -207.542,-58.666 -240,3.792c-22.792,43.833 8.833,128.583 33.583,182.417Z" style="fill:#eea886;fill-rule:nonzero;"/><path d="M5324.75,4689.08c0,0 19.291,-1.041 24.042,-37.583c4.708,-36.125 -4.833,-46.125 -4.833,-46.125c0,0 -85.667,-35.875 -116.417,-40.542c-30.792,-4.666 -106.458,-9.125 -124.167,11.167c0,0 -43.083,-10.042 -54.833,61.5c-18.625,113.5 63.458,223.667 63.458,223.667c0,0 -0.708,-74.125 15.667,-83.959c16.333,-9.833 30.458,13.542 30.458,13.542l33.417,6c0,0 -50.792,-109.708 10.166,-113.75c60.917,-4.083 88.167,12.458 123.042,6.083Z" style="fill:#d6d6d6;fill-rule:nonzero;"/><path d="M5157.21,4761.21c-3.208,-32.666 -62.25,-45.125 -58.291,-10.916c3.958,34.25 33.042,67.125 46.458,65.958c13.458,-1.125 14.25,-30.167 11.833,-55.042Z" style="fill:#eea886;fill-rule:nonzero;"/><path d="M4968.92,5629.75c0,23.833 -7.75,51.125 -19.667,80.167c-0.333,0.75 -0.625,1.5 -0.917,2.208c-8.208,-17.5 -15.958,-34.292 -22.875,-49.833c0,-0.042 -0.041,-0.042 -0.041,-0.084c-19.042,-42.666 -32.125,-75.916 -32.875,-89.083c-4.709,-84.625 57.625,-182 57.625,-182l0,0.167c0.042,0 0.042,0.041 0.042,0.083c0.041,0.167 0.082,0.333 0.124,0.5c0.084,0.292 0.209,0.583 0.25,0.917c0.084,0.208 0.126,0.375 0.167,0.583c0.041,0.167 0.083,0.292 0.125,0.458c12.75,50.292 18.042,235.917 18.042,235.917Zm-194.626,23.833c25.709,49.084 66.334,121.334 106.417,191.334c-5.291,9.875 -10.458,19.625 -15.374,29.291c-12.084,23.584 -22.751,46.417 -30.376,67.667c-9.125,25.625 -21.833,91.167 2.5,103.333l128.084,70.709c0,0 0.874,-2.5 2.583,-7.125c4.25,-11.5 13.416,-36.125 26.167,-68c0.416,-1.042 1.708,-4.084 3.583,-8.542c2.542,-6 6.25,-14.583 10.417,-24.375c1.916,-4.417 3.875,-9.042 5.916,-13.792c2.334,-5.416 4.751,-11.041 7.125,-16.583c3.5,-8.125 6.959,-16.208 10.167,-23.667c8.75,-20.333 15.584,-36.166 15.584,-36.166c0.416,-0.959 0.833,-1.875 1.291,-2.834c4.167,-9 8.417,-18.041 12.792,-27.083c6.708,-13.958 13.666,-27.875 20.75,-41.458c0.708,-1.375 1.416,-2.75 2.125,-4.125c1.25,-2.417 2.541,-4.792 3.791,-7.167c0.792,-1.458 1.584,-2.875 2.375,-4.333c0.167,-0.334 0.334,-0.625 0.542,-0.959c0.292,-0.583 0.625,-1.166 0.917,-1.708c37.041,-67.542 78.75,-124.042 92.041,-206.875c1.292,-7.958 2.5,-15.917 3.667,-23.833c1.958,-13.125 3.708,-26.125 5.333,-38.834c0.584,-4.791 1.209,-9.583 1.792,-14.291c6.667,-55.25 10.625,-104.5 13.833,-138.792c10.042,-106.833 -55.417,-222.542 -105.666,-294c-26.876,-38.208 -49.375,-63.792 -53.709,-68.625c-0.083,-0.083 -0.166,-0.167 -0.25,-0.25c-0.916,0.333 -1.791,0.667 -2.708,1.042c-1.125,0.416 -2.208,0.833 -3.333,1.25c-2.084,0.791 -4.167,1.583 -6.25,2.416c-4.25,1.625 -8.583,3.334 -13,5.084c-1.542,0.583 -3.084,1.208 -4.625,1.833c-48.667,19.083 -163.333,53 -176.209,62.208c-7.458,5.334 -11.875,48.375 -31.083,109.959c-39.583,126.833 -63.083,318.041 -64.25,365.791c0,0.75 -0.042,1.5 -0.042,2.167c0,5.542 10.417,27.583 27.083,59.333Z" style="fill:#3c4145;fill-rule:nonzero;"/><path d="M5921.71,5453.17l-290,63.125l-138.249,-361.5c-3.043,-2.417 -42.709,-23.75 -68.917,-36.25c-27.334,-13 -61.917,-29.084 -92.583,-43.209c-14.626,-6.791 -28.459,-13.125 -40.084,-18.458l-0.959,0.75c0,0 17.126,57 39.251,199.25l0,0.083c0.792,4.75 1.5,9.625 2.291,14.584c0.042,0.583 0.167,1.166 0.25,1.75c0.5,3.291 1,6.625 1.5,10c0.042,0.416 0.125,0.791 0.167,1.166c0.333,2.292 0.709,4.584 1,6.875c0.833,5.625 1.667,11.375 2.5,17.209c9.875,69.25 23.75,187.083 37.083,306.083l0,0.042c10.5,93.791 34.5,190.041 42.125,261.833l0,0.167c1.542,14.041 5.125,32.833 10,53.958c0.542,2.417 1.084,4.833 1.667,7.292c21.459,90.625 63.125,218.958 63.125,218.958l12.125,-11.208l35.916,-33.167c8.292,-7.625 11.417,-19.333 8.084,-30.042c-19.917,-64.291 -87.667,-291.791 -100.042,-451.791c-0.041,-0.042 -0.041,-0.084 -0.041,-0.125c-3.876,-50.25 10.791,-97.584 19.333,-142.5c0.167,0.416 0.292,0.791 0.417,1.208c7.166,19.833 15.041,41.375 23,62.375c21.375,56.375 43.25,108.625 52.374,111.958c20.25,7.459 402.126,-96.958 404.751,-111.958l-26.084,-98.458Z" style="fill:#3c4145;fill-rule:nonzero;"/><path d="M5082.5,5198.42l59.167,33.375l-25.292,25.791l67.333,363.584c13.75,-85.209 20,-166.167 24.625,-215.792c15.5,-165.167 -149.375,-351.5 -159.625,-362.875c-7.916,3 -16.458,6.292 -25.291,9.792l59.083,146.125Z" style="fill:#51565c;fill-rule:nonzero;"/><path d="M5290,5056c0,0 22.125,72.25 47.875,252.5c9.875,69.292 23.75,187.167 37.083,306.125l13.792,-340.5l-28.208,-30.542l25.041,-31.333l-53.624,-136.917c-14.626,-6.791 -28.417,-13.125 -40.084,-18.458l-1.875,-0.875Z" style="fill:#51565c;fill-rule:nonzero;"/><path d="M5045.75,5043.21l49.083,-29.791c0,0 1.333,26.916 122.875,97.208l-34.5,97.208l-137.458,-164.625Z" style="fill:#f5e2d9;fill-rule:nonzero;"/><path d="M5250.04,5026.96c0,0 -1.917,29.042 -32.334,83.667l67.376,87.792l4.916,-142.417l-39.958,-29.042Z" style="fill:#f5e2d9;fill-rule:nonzero;"/><path d="M5217.54,5110.62c0,0 -13.042,52.208 -8.376,66.833c0,0 28.709,10.459 49.334,-2.625c0,0 -14.583,-36.541 -40.958,-64.208Z" style="fill:#0064b5;fill-rule:nonzero;"/><path d="M5285.04,5863.71c7.291,-36.833 0.333,-147.25 0.042,-151.916l-6.25,0.375c0.041,1.166 7.208,114.291 0.041,150.333l6.167,1.208Z" style="fill:#ad9f99;fill-rule:nonzero;"/><path d="M5233.92,5846.71c0,0 58.916,7.042 78.374,11.917l-2.541,66l-77.125,-8.208l1.292,-69.709Z" style="fill:#69737a;fill-rule:nonzero;"/><path d="M5246.79,5170.12c0,0 65.708,165.958 55,351.667c-11.125,192.583 -29.334,262.416 -29.334,262.416l-40.499,50.792l-17.876,-62.458c0,0 54.334,-245.5 19.25,-484.375c-6.333,-43.292 -15.791,-125.334 -15.791,-125.334l29.25,7.292Z" style="fill:#0064b5;fill-rule:nonzero;"/><path d="M5049.38,5953.75c0,0 14.083,28.208 28.167,32.917c14.125,4.708 34.667,27.625 34.667,27.625l-99.251,52.25c0,0 -26.458,-51.667 -27.625,-84.584c-1.167,-32.875 64.042,-28.208 64.042,-28.208Z" style="fill:#eea886;fill-rule:nonzero;"/><path d="M5058.79,5956.42l6.583,13.208c0,0 -63.083,46.125 -80.042,49.042l-5.833,-17.625l79.292,-44.625Z" style="fill:#decbc4;fill-rule:nonzero;"/><path d="M5065.38,5957c0,0 -47.25,39.042 -87.083,57.083l-133.917,-240.875l69.417,-134.166c0,0 148.458,294.458 151.583,317.958Z" style="fill:#3c4145;fill-rule:nonzero;"/><path d="M5467.67,5489.25c7.166,19.833 15.041,41.375 23,62.375c1.875,-24.333 2.333,-47 1.791,-68c-3.166,-124.958 -42.5,-190.458 -42.5,-190.458c9.042,21.791 13.375,68.5 15.417,110.75c2.208,44.541 1.875,84.125 1.875,84.125l0.417,1.208Z" style="fill:#2d3133;fill-rule:nonzero;"/><path d="M4865.33,5874.21l107.208,129.459l-91.834,-158.75c-5.291,9.875 -10.458,19.625 -15.374,29.291Z" style="fill:#2d3133;fill-rule:nonzero;"/><path d="M5643.88,5711.88l247.541,0c16.959,0 31.709,-11.625 35.709,-28.125l107.5,-443.917c5.625,-23.125 -11.917,-45.375 -35.708,-45.375l-247.5,0c-17,0 -31.75,11.584 -35.75,28.084l-107.5,443.916c-5.584,23.125 11.916,45.417 35.708,45.417Z" style="fill:#b8b8b8;fill-rule:nonzero;"/><path d="M5946.62,5588.46c-12.083,-11.208 -35.458,-17.708 -55.458,-31.083c-20.001,-13.375 -3.292,-27.167 -3.292,-27.167c-20.583,-7.041 -18.375,-16.416 -15.75,-22.833c3.584,-8.625 26.042,-6.167 26.042,-6.167c0,0 -20.167,-4.458 -28.417,-8.125c-8.292,-3.666 -5.5,-18.125 7.25,-22.666c12.75,-4.584 64.667,8.25 64.667,8.25c0,0 -8.459,-4.167 -34.084,-17c-25.583,-12.875 -31.208,-24.542 -16.125,-30.167c10.5,-3.875 31.126,4.292 70.709,30.875c29.791,20.042 27.375,22.625 27.375,22.625c0,0 -28.459,116.833 -42.917,103.458Z" style="fill:#eea886;fill-rule:nonzero;"/><path d="M9799.38,806.875c-196.958,2.738 -354.917,165.183 -352.208,362.117c1.666,119.975 63.041,230.454 164.125,295.537l3.833,2.463l1.917,4.117c27.583,58.32 63.333,146.2 77.374,233.687l0.167,1.204c2.709,32.521 20.376,61.992 49.708,82.988c30.209,21.575 68.959,31.637 109.084,28.283c81.875,-6.8 143.917,-67.784 138.25,-135.934l-0.042,-0.608l0,-0.604c-0.458,-68.159 11.25,-146.4 34.792,-232.562l1.333,-4.863l3.876,-3.208c84.083,-69.442 131.416,-171.65 129.916,-280.421c-2.75,-196.938 -165.208,-354.929 -362.125,-352.196Zm41.875,1042.83c-42.375,0.587 -82.917,-11.558 -115.459,-34.825c-36.916,-26.391 -59.208,-63.879 -62.874,-105.612c-13.209,-81.629 -46.417,-164.217 -72.751,-220.501c-107.749,-71.179 -172.999,-190.207 -174.833,-319.333c-2.958,-214.483 169.125,-391.4 383.584,-394.379c214.5,-2.979 391.416,169.092 394.374,383.575c1.626,116.767 -48.416,226.584 -137.5,302.121c-21.833,81.204 -32.749,154.717 -32.374,218.579c6.666,85.388 -68.25,161.425 -167.417,169.658c-4.917,0.409 -9.833,0.646 -14.75,0.717Z" style="fill:#ffdc7d;fill-rule:nonzero;"/><path d="M9757.58,1724.03l-88.667,-417.688l94.583,64.922l49.125,-65.484l52.292,52.592l76,-77.092l-12.042,427.404l-31.791,-0.895l9.749,-346.596l-41.833,42.416l-49,-49.295l-45.375,60.449l-54.042,-37.091l72.125,339.745l-31.124,6.613Z" style="fill:#ffdc7d;fill-rule:nonzero;"/><path d="M9999.21,1909.73l-274.959,22.833l-9.208,-110.808l274.958,-22.833l9.209,110.808Z" style="fill:#ffdc7d;fill-rule:nonzero;"/><path d="M10039.7,1860.42l-363.417,30.179l-14.833,-178.379l363.416,-30.179l14.834,178.379Z" style="fill:#ffdc7d;fill-rule:nonzero;"/></g><defs><linearGradient id="_Linear1" x1="0" y1="0" x2="1" y2="0" gradientUnits="userSpaceOnUse" gradientTransform="matrix(991.488,0,0,991.488,1988.92,910.192)"><stop offset="0" style="stop-color:#ff9e54;stop-opacity:1"/><stop offset="1" style="stop-color:#ffd154;stop-opacity:1"/></linearGradient><linearGradient id="_Linear2" x1="0" y1="0" x2="1" y2="0" gradientUnits="userSpaceOnUse" gradientTransform="matrix(454.542,0,0,454.542,2667.05,1580.65)"><stop offset="0" style="stop-color:#ff9e54;stop-opacity:1"/><stop offset="1" style="stop-color:#ffd154;stop-opacity:1"/></linearGradient><linearGradient id="_Linear3" x1="0" y1="0" x2="1" y2="0" gradientUnits="userSpaceOnUse" gradientTransform="matrix(64.4654,0,0,64.4654,3877.16,4654.54)"><stop offset="0" style="stop-color:#ff9e54;stop-opacity:1"/><stop offset="1" style="stop-color:#ffd154;stop-opacity:1"/></linearGradient><linearGradient id="_Linear4" x1="0" y1="0" x2="1" y2="0" gradientUnits="userSpaceOnUse" gradientTransform="matrix(64.4613,0,0,64.4613,6706.29,4654.54)"><stop offset="0" style="stop-color:#ff9e54;stop-opacity:1"/><stop offset="1" style="stop-color:#ffd154;stop-opacity:1"/></linearGradient><linearGradient id="_Linear5" x1="0" y1="0" x2="1" y2="0" gradientUnits="userSpaceOnUse" gradientTransform="matrix(1888.08,0,0,1888.08,4328.58,2216.72)"><stop offset="0" style="stop-color:#ff9e54;stop-opacity:1"/><stop offset="1" style="stop-color:#ffd154;stop-opacity:1"/></linearGradient></defs></svg>